<svg xmlns="http://www.w3.org/2000/svg" viewBox="0 0 78 45" width="78" height="45" fill="currentColor" role="img" aria-label="who">
<title>who</title>
<path fill-rule="evenodd" d="M 8 42.5 C 7.84 42.2, 7.48 42, 7.11 42 C 6.67 42, 5.97 41.48, 4.74 40.26 C 3.1 38.62, 3 38.45, 3 37.39 C 3 36.52, 2.89 36.21, 2.5 36 C 2.02 35.75, 2 35.48, 2 30.5 C 2 25.52, 2.02 25.25, 2.5 25 C 2.8 24.84, 3 24.48, 3 24.1 C 3 23.72, 3.32 23.15, 3.78 22.68 L 4.55 21.91 L 5.03 22.52 L 5.5 23.12 L 5.97 22.52 L 6.44 21.92 L 7.72 23.2 L 9 24.48 L 9 30.01 L 9 35.54 L 9.73 36.27 C 10.3 36.84, 10.69 37, 11.5 37 C 12.31 37, 12.7 36.84, 13.27 36.27 L 14 35.54 L 14 31.5 L 14 27.46 L 14.74 26.72 C 15.44 26.02, 15.59 25.98, 17.18 26.05 L 18.88 26.12 L 18.95 26.94 C 19 27.43, 19.22 27.85, 19.52 28.01 C 19.88 28.21, 20 28.54, 20 29.4 C 20 30.42, 20.12 30.64, 21.25 31.77 L 22.5 33.02 L 24.19 32.95 L 25.88 32.88 L 25.94 29.69 L 26.01 26.5 L 23.26 23.75 C 21.51 22, 20.32 21, 19.99 21 C 19.7 21, 19.13 20.67, 18.73 20.27 C 18.14 19.68, 18 19.32, 18 18.4 C 18 17.52, 17.89 17.21, 17.5 17 C 17.11 16.79, 17 16.48, 17 15.6 C 17 14.68, 17.14 14.32, 17.73 13.73 C 18.32 13.14, 18.68 13, 19.6 13 C 20.48 13, 20.79 13.11, 21 13.5 C 21.17 13.81, 21.53 14, 21.95 14 C 22.42 14, 22.89 14.3, 23.5 15 C 24.11 15.7, 24.58 16, 25.05 16 C 25.47 16, 25.83 16.19, 26 16.5 C 26.16 16.8, 26.52 17, 26.9 17 C 27.7 17, 29 18.26, 29 19.04 C 29 19.41, 29.38 19.95, 30 20.5 C 30.89 21.29, 31 21.49, 31 22.55 C 31 23.48, 31.11 23.79, 31.5 24 C 31.96 24.25, 32 24.52, 32 27.5 C 32 30.48, 31.96 30.75, 31.5 31 C 31.08 31.23, 31 31.52, 31 32.89 L 31 34.52 L 29.26 36.26 C 28.03 37.48, 27.33 38, 26.89 38 C 26.52 38, 26.16 38.2, 26 38.5 C 25.79 38.9, 25.48 39, 24.5 39 C 23.52 39, 23.21 38.9, 23 38.5 C 22.79 38.1, 22.48 38, 21.5 38 C 20.52 38, 20.21 37.9, 20 37.5 C 19.44 36.45, 18.6 36.86, 16 39.5 C 14.17 41.36, 13.37 42, 12.9 42 C 12.52 42, 12.16 42.2, 12 42.5 C 11.77 42.93, 11.48 43, 10 43 C 8.52 43, 8.23 42.93, 8 42.5 Z M 38.18 36.84 C 38.08 36.75, 38 36.13, 38 35.47 C 38 34.52, 37.89 34.21, 37.5 34 C 37.02 33.74, 37 33.48, 37 28 C 37 22.52, 37.02 22.26, 37.5 22 C 37.93 21.77, 38 21.48, 38 20 C 38 18.52, 37.93 18.23, 37.5 18 C 37.17 17.83, 37 17.48, 37 17 C 37 16.52, 37.17 16.17, 37.5 16 C 37.97 15.75, 38 15.48, 38 11 C 38 6.56, 38.03 6.25, 38.49 6.01 C 38.89 5.79, 38.99 5.43, 39.05 3.93 L 39.12 2.12 L 40.32 2.05 C 41.36 1.98, 41.6 2.07, 42.25 2.71 L 42.99 3.45 L 43.06 10.66 L 43.12 17.88 L 45.83 17.95 L 48.54 18.02 L 49.77 19.25 C 50.59 20.07, 51 20.69, 51 21.1 C 51 21.48, 51.2 21.84, 51.5 22 C 51.9 22.21, 52 22.52, 52 23.5 C 52 24.48, 52.1 24.79, 52.5 25 C 52.93 25.23, 53 25.52, 53 27 C 53 28.48, 53.07 28.77, 53.5 29 C 53.93 29.23, 54 29.52, 54 31 C 54 32.49, 54.07 32.77, 54.51 33.01 C 54.95 33.24, 55.01 33.48, 54.95 34.58 L 54.88 35.88 L 53.19 35.95 L 51.5 36.02 L 50.25 34.77 L 49 33.52 L 49 31.4 C 49 29.52, 48.94 29.24, 48.5 29 C 48.07 28.77, 48 28.48, 48 27 C 48 25.52, 47.93 25.23, 47.5 25 C 47.18 24.83, 47 24.48, 47 24.01 C 47 23.61, 46.89 23.21, 46.75 23.13 C 46.62 23.04, 45.72 23.76, 44.75 24.73 L 43 26.48 L 43 30.11 C 43 33.44, 42.96 33.75, 42.51 33.99 C 42.14 34.19, 42.01 34.57, 41.95 35.56 L 41.88 36.88 L 40.11 36.95 C 39.15 36.99, 38.27 36.94, 38.18 36.84 Z M 62 36.5 C 61.84 36.2, 61.48 36, 61.1 36 C 60.73 36, 60.16 35.69, 59.73 35.27 L 59 34.54 L 59 30.9 C 59 27.52, 59.04 27.25, 59.5 27 C 59.9 26.79, 60 26.48, 60 25.5 C 60 24.52, 60.1 24.21, 60.5 24 C 60.8 23.84, 61 23.48, 61 23.1 C 61 22.28, 63.24 20, 64.05 20 C 64.41 20, 64.96 19.61, 65.5 19 C 66.29 18.11, 66.49 18, 67.55 18 C 68.48 18, 68.79 18.11, 69 18.5 C 69.21 18.89, 69.52 19, 70.39 19 C 71.47 19, 71.6 19.08, 73.76 21.24 L 76 23.49 L 76 27.06 L 76 30.62 L 75 31.5 C 74.38 32.05, 74 32.59, 74 32.96 C 74 33.71, 72.71 35, 71.96 35 C 71.59 35, 71.05 35.38, 70.5 36 L 69.62 37 L 65.95 37 C 62.52 37, 62.25 36.97, 62 36.5 Z M 68 32.5 C 68.16 32.2, 68.52 32, 68.9 32 C 69.73 32, 71 30.73, 71 29.9 C 71 29.52, 71.2 29.16, 71.5 29 C 71.92 28.77, 72 28.48, 72 27.1 C 72 25.62, 71.93 25.39, 71.27 24.73 C 70.86 24.32, 70.27 24, 69.92 24 C 69.57 24, 69.16 23.77, 68.94 23.44 L 68.57 22.89 L 67.79 23.68 C 67.35 24.11, 67 24.7, 67 25 C 67 25.7, 65.7 27, 65 27 C 64.7 27, 64.13 27.33, 63.73 27.73 C 63.08 28.38, 63 28.63, 63 30 C 63 31.33, 63.09 31.63, 63.69 32.25 C 64.31 32.91, 64.54 32.98, 66.05 32.99 C 67.48 33, 67.77 32.93, 68 32.5 Z"/>
</svg>
